<?xml version="1.0" encoding="UTF-8"?><svg version="1.1" width="103px" height="13px" viewBox="0 0 103.0 13.0" xmlns="http://www.w3.org/2000/svg" xmlns:xlink="http://www.w3.org/1999/xlink"><defs><clipPath id="i0"><path d="M1400,0 L1400,760 L0,760 L0,0 L1400,0 Z"></path></clipPath><clipPath id="i1"><path d="M2.736,0 L2.736,4.928 L6.48,0 L9.696,0 L5.344,5.504 L9.856,11.232 L6.512,11.232 L2.736,6.272 L2.736,11.232 L0,11.232 L0,0 L2.736,0 Z"></path></clipPath><clipPath id="i2"><path d="M4.592,0 C5.47733333,0 6.232,0.154666667 6.856,0.464 C7.48,0.773333333 7.94666667,1.19733333 8.256,1.736 C8.56533333,2.27466667 8.72,2.87466667 8.72,3.536 C8.72,4.28266667 8.50933333,4.94933333 8.088,5.536 C7.66666667,6.12266667 7.04533333,6.53866667 6.224,6.784 L8.816,11.232 L5.728,11.232 L3.392,6.992 L2.736,6.992 L2.736,11.232 L0,11.232 L0,0 L4.592,0 Z M4.432,2.272 L2.736,2.272 L2.736,5.056 L4.432,5.056 C4.93333333,5.056 5.30933333,4.93333333 5.56,4.688 C5.81066667,4.44266667 5.936,4.096 5.936,3.648 C5.936,3.22133333 5.81066667,2.88533333 5.56,2.64 C5.30933333,2.39466667 4.93333333,2.272 4.432,2.272 Z"></path></clipPath><clipPath id="i3"><path d="M5.776,0 C6.832,0 7.8,0.245333333 8.68,0.736 C9.56,1.22666667 10.2533333,1.90933333 10.76,2.784 C11.2666667,3.65866667 11.52,4.64533333 11.52,5.744 C11.52,6.84266667 11.264,7.832 10.752,8.712 C10.24,9.592 9.54666667,10.2773333 8.672,10.768 C7.79733333,11.2586667 6.832,11.504 5.776,11.504 C4.72,11.504 3.752,11.2586667 2.872,10.768 C1.992,10.2773333 1.29333333,9.592 0.776,8.712 C0.258666667,7.832 0,6.84266667 0,5.744 C0,4.64533333 0.258666667,3.65866667 0.776,2.784 C1.29333333,1.90933333 1.992,1.22666667 2.872,0.736 C3.752,0.245333333 4.72,0 5.776,0 Z M5.776,2.48 C4.86933333,2.48 4.14666667,2.77333333 3.608,3.36 C3.06933333,3.94666667 2.8,4.74133333 2.8,5.744 C2.8,6.736 3.06933333,7.528 3.608,8.12 C4.14666667,8.712 4.86933333,9.008 5.776,9.008 C6.672,9.008 7.38933333,8.70933333 7.928,8.112 C8.46666667,7.51466667 8.736,6.72533333 8.736,5.744 C8.736,4.752 8.46666667,3.96 7.928,3.368 C7.38933333,2.776 6.672,2.48 5.776,2.48 Z"></path></clipPath><clipPath id="i4"><path d="M2.912,0 L5.696,8.48 L8.496,0 L11.392,0 L7.408,11.232 L3.984,11.232 L0,0 L2.912,0 Z"></path></clipPath><clipPath id="i5"><path d="M6.88,0 L6.88,2.192 L2.736,2.192 L2.736,4.464 L6.4,4.464 L6.4,6.576 L2.736,6.576 L2.736,9.04 L6.88,9.04 L6.88,11.232 L0,11.232 L0,0 L6.88,0 Z"></path></clipPath><clipPath id="i6"><path d="M5.5,0 L11,11 L0,11 L5.5,0 Z"></path></clipPath></defs><g transform="translate(-75.0 -69.0)"><g clip-path="url(#i0)"><g transform="translate(75.99199999999996 64.0)"><g transform="translate(0.0 5.608000000000004)"><g transform="translate(0.0 0.15999999999996817)"><g clip-path="url(#i1)"><polygon points="0,0 9.856,0 9.856,11.232 0,11.232 0,0" stroke="none" fill="#030303"></polygon></g></g><g transform="translate(18.652000000000044 0.15999999999996817)"><g clip-path="url(#i2)"><polygon points="0,0 8.816,0 8.816,11.232 0,11.232 0,0" stroke="none" fill="#030303"></polygon></g></g><g transform="translate(36.120000000000005 0.0)"><g clip-path="url(#i3)"><polygon points="0,0 11.52,0 11.52,11.504 0,11.504 0,0" stroke="none" fill="#030303"></polygon></g></g><g transform="translate(55.81200000000001 0.15999999999996817)"><g clip-path="url(#i4)"><polygon points="0,0 11.392,0 11.392,11.232 0,11.232 0,0" stroke="none" fill="#030303"></polygon></g></g><g transform="translate(75.84000000000003 0.15999999999996817)"><g clip-path="url(#i5)"><polygon points="0,0 6.88,0 6.88,11.232 0,11.232 0,0" stroke="none" fill="#030303"></polygon></g></g><g transform="translate(91.00800000000004 0.3919999999999959)"><g clip-path="url(#i6)"><polygon points="0,0 11,0 11,11 0,11 0,0" stroke="none" fill="#FE9D46"></polygon></g></g></g></g></g></g></svg>